<?xml version="1.0" encoding="iso-8859-1"?>
<!-- Generator: Adobe Illustrator 16.0.3, SVG Export Plug-In . SVG Version: 6.00 Build 0)  -->
<!DOCTYPE svg PUBLIC "-//W3C//DTD SVG 1.1//EN" "http://www.w3.org/Graphics/SVG/1.1/DTD/svg11.dtd">
<svg version="1.1" id="Layer_1" xmlns="http://www.w3.org/2000/svg" xmlns:xlink="http://www.w3.org/1999/xlink" x="0px" y="0px"
	 width="75.221px" height="64.177px" viewBox="0 0 75.221 64.177" style="enable-background:new 0 0 75.221 64.177;"
	 xml:space="preserve">
<g>
	<path style="fill:#FFFFFF;" d="M14.214,59.613h8.55c0.117,0.75,0.739,1.329,1.513,1.329H43.69c0.772,0,1.398-0.578,1.511-1.329
		h8.553c1.444,0,2.603-1.173,2.603-2.615H11.61C11.61,58.44,12.773,59.613,14.214,59.613L14.214,59.613z M14.214,59.613"/>
	<path style="fill:#FFFFFF;" d="M66.649,32.74c-2.178-1.769-5.246-1.796-7.253-1.571c0.058-1.396,0.084-2.838,0.084-4.337H6.24
		c0,14.39,2.179,24.766,15.961,28.639H43.52c5.457-1.528,9.076-4.099,11.479-7.519c5.231-0.101,13.641-2.164,13.953-9.388
		C69.095,35.412,67.781,33.656,66.649,32.74L66.649,32.74z M57.191,43.821c1.002-2.571,1.595-5.469,1.921-8.651
		c1.415-0.24,3.847-0.381,5.075,0.621c0.226,0.187,0.936,0.763,0.849,2.603C64.881,42.14,60.23,43.398,57.191,43.821L57.191,43.821z
		 M57.191,43.821"/>
	<path style="fill:#FFFFFF;" d="M27.926,24.81c0,0,10.138-0.753,5.485-9.29C29.691,8.666,30.542,4.634,35.305,1
		c0,0-15.622,3.989-6.504,16.3C32.138,22.674,27.926,24.81,27.926,24.81L27.926,24.81z M27.926,24.81"/>
	<path style="fill:#FFFFFF;" d="M34.754,24.13c0,0,8.13-1.712,3.702-8.242c-1.596-2.829,0.609-3.846,0.609-3.846
		s-5.23,0.171-3.027,4.651C37.81,20.311,37.285,22.364,34.754,24.13L34.754,24.13z M34.754,24.13"/>
</g>
</svg>
